# xmcd
#
# Track frame offsets:
#	150
#	15999
#	36346
#	53801
#	71401
#	87551
#	101626
#	116604
#	131888
#	147555
#
# Disc length: 2125 seconds
#
# Revision: 1
# Processed by: cddbd v1.5.1PL2 Copyright (c) Steve Scherf et al.
# Submitted via: audiograbber 1.81.02
#
DISCID=8f084b0a
DTITLE=Cathy Burton - Silvertown (www.gerth.de)
DYEAR=2006
DGENRE=Pop
TTITLE0=Everyone's Fool
TTITLE1=Open
TTITLE2=God Of The Sky
TTITLE3=Love's Invited
TTITLE4=No One Called You
TTITLE5=Wintertime Love
TTITLE6=Tell Me How
TTITLE7=Silvertown
TTITLE8=Love Wouldn't Leave
TTITLE9=Sleep
EXTD=
EXTT0=
EXTT1=
EXTT2=
EXTT3=
EXTT4=
EXTT5=
EXTT6=
EXTT7=
EXTT8=
EXTT9=
PLAYORDER=
